<mxfile host="app.diagrams.net" agent="Mozilla/5.0 (Windows NT 10.0; Win64; x64) AppleWebKit/537.36 (KHTML, like Gecko) Chrome/129.0.0.0 Safari/537.36" version="24.8.0">
  <diagram name="PÃ¡gina-1" id="ldL6w5ycShIwj-FzlGDQ">
    <mxGraphModel dx="1841" dy="554" grid="1" gridSize="10" guides="1" tooltips="1" connect="1" arrows="1" fold="1" page="1" pageScale="1" pageWidth="827" pageHeight="1169" math="0" shadow="0">
      <root>
        <mxCell id="0" />
        <mxCell id="1" parent="0" />
        <mxCell id="BHuT_W2_O0iIRNJsDVqD-15" style="edgeStyle=orthogonalEdgeStyle;rounded=0;orthogonalLoop=1;jettySize=auto;html=1;entryX=0.5;entryY=0;entryDx=0;entryDy=0;" parent="1" source="BHuT_W2_O0iIRNJsDVqD-1" target="BHuT_W2_O0iIRNJsDVqD-3" edge="1">
          <mxGeometry relative="1" as="geometry" />
        </mxCell>
        <mxCell id="BHuT_W2_O0iIRNJsDVqD-1" value="INICIO" style="ellipse;whiteSpace=wrap;html=1;" parent="1" vertex="1">
          <mxGeometry x="339" y="360" width="160" height="50" as="geometry" />
        </mxCell>
        <mxCell id="BHuT_W2_O0iIRNJsDVqD-2" value="FIM" style="ellipse;whiteSpace=wrap;html=1;" parent="1" vertex="1">
          <mxGeometry x="344" y="1100" width="150" height="50" as="geometry" />
        </mxCell>
        <mxCell id="BHuT_W2_O0iIRNJsDVqD-17" value="" style="edgeStyle=orthogonalEdgeStyle;rounded=0;orthogonalLoop=1;jettySize=auto;html=1;" parent="1" source="BHuT_W2_O0iIRNJsDVqD-3" target="BHuT_W2_O0iIRNJsDVqD-6" edge="1">
          <mxGeometry relative="1" as="geometry" />
        </mxCell>
        <mxCell id="AJXQH8392Nl5vU6gHaAk-1" style="edgeStyle=orthogonalEdgeStyle;rounded=0;orthogonalLoop=1;jettySize=auto;html=1;" edge="1" parent="1" source="BHuT_W2_O0iIRNJsDVqD-3">
          <mxGeometry relative="1" as="geometry">
            <mxPoint x="670" y="980" as="targetPoint" />
          </mxGeometry>
        </mxCell>
        <mxCell id="BHuT_W2_O0iIRNJsDVqD-3" value="LEITURA&lt;div&gt;VARIAVEL LETRA&lt;/div&gt;" style="html=1;strokeWidth=2;shape=manualInput;whiteSpace=wrap;rounded=1;size=26;arcSize=11;" parent="1" vertex="1">
          <mxGeometry x="354" y="440" width="130" height="70" as="geometry" />
        </mxCell>
        <mxCell id="BHuT_W2_O0iIRNJsDVqD-4" value="" style="rounded=0;whiteSpace=wrap;html=1;" parent="1" vertex="1">
          <mxGeometry x="-60" y="525" width="120" height="60" as="geometry" />
        </mxCell>
        <mxCell id="BHuT_W2_O0iIRNJsDVqD-5" value="IMPRIMA SOLTEIRO" style="shape=display;whiteSpace=wrap;html=1;fontSize=10;" parent="1" vertex="1">
          <mxGeometry x="530" y="565" width="80" height="40" as="geometry" />
        </mxCell>
        <mxCell id="BHuT_W2_O0iIRNJsDVqD-16" value="" style="edgeStyle=orthogonalEdgeStyle;rounded=0;orthogonalLoop=1;jettySize=auto;html=1;" parent="1" source="BHuT_W2_O0iIRNJsDVqD-6" target="BHuT_W2_O0iIRNJsDVqD-5" edge="1">
          <mxGeometry relative="1" as="geometry" />
        </mxCell>
        <mxCell id="BHuT_W2_O0iIRNJsDVqD-19" value="" style="edgeStyle=orthogonalEdgeStyle;rounded=0;orthogonalLoop=1;jettySize=auto;html=1;" parent="1" source="BHuT_W2_O0iIRNJsDVqD-6" target="BHuT_W2_O0iIRNJsDVqD-18" edge="1">
          <mxGeometry relative="1" as="geometry" />
        </mxCell>
        <mxCell id="BHuT_W2_O0iIRNJsDVqD-6" value="SE LETRA ==S&amp;nbsp;" style="strokeWidth=2;html=1;shape=mxgraph.flowchart.decision;whiteSpace=wrap;" parent="1" vertex="1">
          <mxGeometry x="368.5" y="535" width="101" height="100" as="geometry" />
        </mxCell>
        <mxCell id="AJXQH8392Nl5vU6gHaAk-3" style="edgeStyle=orthogonalEdgeStyle;rounded=0;orthogonalLoop=1;jettySize=auto;html=1;exitX=0.5;exitY=1;exitDx=0;exitDy=0;" edge="1" parent="1" source="BHuT_W2_O0iIRNJsDVqD-7">
          <mxGeometry relative="1" as="geometry">
            <mxPoint x="500" y="1120" as="targetPoint" />
            <Array as="points">
              <mxPoint x="665" y="1120" />
            </Array>
          </mxGeometry>
        </mxCell>
        <mxCell id="BHuT_W2_O0iIRNJsDVqD-7" value="" style="ellipse;whiteSpace=wrap;html=1;aspect=fixed;" parent="1" vertex="1">
          <mxGeometry x="650" y="990" width="30" height="30" as="geometry" />
        </mxCell>
        <mxCell id="BHuT_W2_O0iIRNJsDVqD-21" value="" style="edgeStyle=orthogonalEdgeStyle;rounded=0;orthogonalLoop=1;jettySize=auto;html=1;" parent="1" source="BHuT_W2_O0iIRNJsDVqD-18" target="BHuT_W2_O0iIRNJsDVqD-20" edge="1">
          <mxGeometry relative="1" as="geometry" />
        </mxCell>
        <mxCell id="BHuT_W2_O0iIRNJsDVqD-29" value="" style="edgeStyle=orthogonalEdgeStyle;rounded=0;orthogonalLoop=1;jettySize=auto;html=1;" parent="1" source="BHuT_W2_O0iIRNJsDVqD-18" target="BHuT_W2_O0iIRNJsDVqD-24" edge="1">
          <mxGeometry relative="1" as="geometry" />
        </mxCell>
        <mxCell id="BHuT_W2_O0iIRNJsDVqD-18" value="SE LETRA ==C&amp;nbsp;" style="strokeWidth=2;html=1;shape=mxgraph.flowchart.decision;whiteSpace=wrap;" parent="1" vertex="1">
          <mxGeometry x="368.5" y="670" width="101" height="100" as="geometry" />
        </mxCell>
        <mxCell id="BHuT_W2_O0iIRNJsDVqD-20" value="IMPRIMA CASADO" style="shape=display;whiteSpace=wrap;html=1;fontSize=11;" parent="1" vertex="1">
          <mxGeometry x="530" y="700" width="80" height="40" as="geometry" />
        </mxCell>
        <mxCell id="BHuT_W2_O0iIRNJsDVqD-22" value="V&lt;span style=&quot;color: rgba(0, 0, 0, 0); font-family: monospace; font-size: 0px; text-align: start; text-wrap: nowrap;&quot;&gt;%3CmxGraphModel%3E%3Croot%3E%3CmxCell%20id%3D%220%22%2F%3E%3CmxCell%20id%3D%221%22%20parent%3D%220%22%2F%3E%3CmxCell%20id%3D%222%22%20value%3D%22IMPRIMA%20SOLTEIRO%22%20style%3D%22shape%3Ddisplay%3BwhiteSpace%3Dwrap%3Bhtml%3D1%3B%22%20vertex%3D%221%22%20parent%3D%221%22%3E%3CmxGeometry%20x%3D%22530%22%20y%3D%22565%22%20width%3D%2280%22%20height%3D%2240%22%20as%3D%22geometry%22%2F%3E%3C%2FmxCell%3E%3C%2Froot%3E%3C%2FmxGraphModel%3E&lt;/span&gt;" style="text;html=1;align=center;verticalAlign=middle;whiteSpace=wrap;rounded=0;" parent="1" vertex="1">
          <mxGeometry x="469.5" y="550" width="60" height="30" as="geometry" />
        </mxCell>
        <mxCell id="BHuT_W2_O0iIRNJsDVqD-23" value="F" style="text;html=1;align=center;verticalAlign=middle;whiteSpace=wrap;rounded=0;" parent="1" vertex="1">
          <mxGeometry x="414" y="640" width="60" height="30" as="geometry" />
        </mxCell>
        <mxCell id="BHuT_W2_O0iIRNJsDVqD-26" value="" style="edgeStyle=orthogonalEdgeStyle;rounded=0;orthogonalLoop=1;jettySize=auto;html=1;" parent="1" source="BHuT_W2_O0iIRNJsDVqD-24" target="BHuT_W2_O0iIRNJsDVqD-25" edge="1">
          <mxGeometry relative="1" as="geometry" />
        </mxCell>
        <mxCell id="BHuT_W2_O0iIRNJsDVqD-32" value="" style="edgeStyle=orthogonalEdgeStyle;rounded=0;orthogonalLoop=1;jettySize=auto;html=1;" parent="1" source="BHuT_W2_O0iIRNJsDVqD-24" target="BHuT_W2_O0iIRNJsDVqD-28" edge="1">
          <mxGeometry relative="1" as="geometry" />
        </mxCell>
        <mxCell id="BHuT_W2_O0iIRNJsDVqD-24" value="SE LETRA ==D&amp;nbsp;" style="strokeWidth=2;html=1;shape=mxgraph.flowchart.decision;whiteSpace=wrap;" parent="1" vertex="1">
          <mxGeometry x="368.5" y="810" width="101" height="100" as="geometry" />
        </mxCell>
        <mxCell id="AJXQH8392Nl5vU6gHaAk-2" style="edgeStyle=orthogonalEdgeStyle;rounded=0;orthogonalLoop=1;jettySize=auto;html=1;exitX=1;exitY=0.5;exitDx=0;exitDy=0;exitPerimeter=0;" edge="1" parent="1" source="BHuT_W2_O0iIRNJsDVqD-25">
          <mxGeometry relative="1" as="geometry">
            <mxPoint x="690" y="1000" as="targetPoint" />
            <Array as="points">
              <mxPoint x="721" y="860" />
            </Array>
          </mxGeometry>
        </mxCell>
        <mxCell id="BHuT_W2_O0iIRNJsDVqD-25" value="IMPRIMA DIVORCIADO" style="shape=display;whiteSpace=wrap;html=1;gradientColor=none;fillColor=default;fontSize=9;" parent="1" vertex="1">
          <mxGeometry x="529.5" y="840" width="80" height="40" as="geometry" />
        </mxCell>
        <mxCell id="BHuT_W2_O0iIRNJsDVqD-33" value="" style="edgeStyle=orthogonalEdgeStyle;rounded=0;orthogonalLoop=1;jettySize=auto;html=1;" parent="1" source="BHuT_W2_O0iIRNJsDVqD-28" target="BHuT_W2_O0iIRNJsDVqD-31" edge="1">
          <mxGeometry relative="1" as="geometry" />
        </mxCell>
        <mxCell id="BHuT_W2_O0iIRNJsDVqD-39" value="" style="edgeStyle=orthogonalEdgeStyle;rounded=0;orthogonalLoop=1;jettySize=auto;html=1;" parent="1" source="BHuT_W2_O0iIRNJsDVqD-28" target="BHuT_W2_O0iIRNJsDVqD-2" edge="1">
          <mxGeometry relative="1" as="geometry" />
        </mxCell>
        <mxCell id="BHuT_W2_O0iIRNJsDVqD-28" value="SE LETRA ==V&amp;nbsp;" style="strokeWidth=2;html=1;shape=mxgraph.flowchart.decision;whiteSpace=wrap;" parent="1" vertex="1">
          <mxGeometry x="368.5" y="960" width="101" height="100" as="geometry" />
        </mxCell>
        <mxCell id="AJXQH8392Nl5vU6gHaAk-4" style="edgeStyle=orthogonalEdgeStyle;rounded=0;orthogonalLoop=1;jettySize=auto;html=1;exitX=1;exitY=0.5;exitDx=0;exitDy=0;exitPerimeter=0;" edge="1" parent="1" source="BHuT_W2_O0iIRNJsDVqD-31">
          <mxGeometry relative="1" as="geometry">
            <mxPoint x="640" y="1010" as="targetPoint" />
          </mxGeometry>
        </mxCell>
        <mxCell id="BHuT_W2_O0iIRNJsDVqD-31" value="IMPRIMA&lt;div&gt;&amp;nbsp;VIUVO&lt;/div&gt;" style="shape=display;whiteSpace=wrap;html=1;gradientColor=none;fillColor=default;fontSize=10;" parent="1" vertex="1">
          <mxGeometry x="530" y="990" width="80" height="40" as="geometry" />
        </mxCell>
        <mxCell id="BHuT_W2_O0iIRNJsDVqD-34" value="V" style="text;html=1;align=center;verticalAlign=middle;whiteSpace=wrap;rounded=0;" parent="1" vertex="1">
          <mxGeometry x="469.5" y="680" width="60" height="30" as="geometry" />
        </mxCell>
        <mxCell id="BHuT_W2_O0iIRNJsDVqD-35" value="V" style="text;html=1;align=center;verticalAlign=middle;whiteSpace=wrap;rounded=0;" parent="1" vertex="1">
          <mxGeometry x="469.5" y="820" width="60" height="30" as="geometry" />
        </mxCell>
        <mxCell id="BHuT_W2_O0iIRNJsDVqD-36" value="V" style="text;html=1;align=center;verticalAlign=middle;whiteSpace=wrap;rounded=0;" parent="1" vertex="1">
          <mxGeometry x="470" y="970" width="60" height="30" as="geometry" />
        </mxCell>
        <mxCell id="BHuT_W2_O0iIRNJsDVqD-37" value="F" style="text;html=1;align=center;verticalAlign=middle;whiteSpace=wrap;rounded=0;" parent="1" vertex="1">
          <mxGeometry x="424" y="780" width="60" height="30" as="geometry" />
        </mxCell>
        <mxCell id="BHuT_W2_O0iIRNJsDVqD-38" value="F" style="text;html=1;align=center;verticalAlign=middle;whiteSpace=wrap;rounded=0;" parent="1" vertex="1">
          <mxGeometry x="424" y="950" width="60" height="30" as="geometry" />
        </mxCell>
      </root>
    </mxGraphModel>
  </diagram>
</mxfile>
